# AST/ASF file generated using VICON BodyLanguage
# -----------------------------------------------
:version 1.10
:name VICON
:units
  mass 1.0
  length 0.45
  angle deg
:documentation
   .ast/.asf automatically generated from VICON data using
   VICON BodyBuilder and BodyLanguage model FoxedUp or BRILLIANT.MOD
:root
   order TX TY TZ RX RY RZ
   axis XYZ
   position 0 0 0  
   orientation 0 -0 0 
:bonedata
  begin
     id 1 
     name lhipjoint
     direction 0.500677 -0.737119 0.453848 
     length 2.34727 
     axis 0 -0 0  XYZ
  end
  begin
     id 2 
     name lfemur
     direction 0.34202 -0.939693 0  
     length 7.53653  
     axis 0 -0 20  XYZ
    dof rx ry rz
    limits (-160.0 20.0)
           (-70.0 70.0)
           (-60.0 70.0)
  end
  begin
     id 3 
     name ltibia
     direction 0.34202 -0.939693 0   
     length 6.85572   
     axis 0 -0 20   XYZ
    dof rx
    limits (-10.0 170.0)
  end
  begin
     id 4 
     name lfoot
     direction 0.155313 -0.426718 0.890949   
     length 2.18324   
     axis -90 -1.13533e-015 20   XYZ
    dof rx rz
    limits (-45.0 90.0)
           (-70.0 20.0)
  end
  begin
     id 5 
     name ltoes
     direction 1.53474e-011 -4.21647e-011 1   
     length 1.06748   
     axis -90 -1.13533e-015 20   XYZ
    dof rx
    limits (-90.0 20.0)
  end
  begin
     id 6 
     name rhipjoint
     direction -0.632471 -0.659587 0.406111   
     length 2.62319  
     axis 0 -0 0  XYZ 
  end
  begin
     id 7 
     name rfemur
     direction -0.34202 -0.939693 0   
     length 7.21735   
     axis 0 -0 -20   XYZ
    dof rx ry rz
    limits (-160.0 20.0)
           (-70.0 70.0)
           (-70.0 60.0)
  end
  begin
     id 8 
     name rtibia
     direction -0.34202 -0.939693 0   
     length 7.02558   
     axis 0 -0 -20   XYZ
    dof rx
    limits (-10.0 170.0)
 end
 begin
     id 9 
     name rfoot
     direction -0.16057 -0.441164 0.882945   
     length 2.10014  
     axis -90 1.13533e-015 -20   XYZ
    dof rx rz
    limits (-45.0 90.0)
           (-20.0 70.0)
  end
  begin
     id 10 
     name rtoes
     direction -1.53553e-011 -4.2192e-011 1   
     length 1.02554   
     axis -90 1.13533e-015 -20   XYZ
    dof rx
    limits (-90.0 20.0)
  end
  begin
     id 11 
     name lowerback
     direction 0.0401429 0.998861 -0.0258085   
     length 1.80848   
     axis 0 -0 0   XYZ
    dof rx ry rz
    limits (-20.0 45.0)
           (-30.0 30.0)
           (-30.0 30.0)
  end
  begin
     id 12 
     name upperback
     direction -0.0130978 0.999914 -0.000352645   
     length 1.8116   
     axis 0 -0 0   XYZ
    dof rx ry rz
    limits (-20.0 45.0)
           (-30.0 30.0)
           (-30.0 30.0)
  end
  begin
     id 13 
     name thorax
     direction -0.0300198 0.999453 0.0138573   
     length 1.81778   
     axis 0 -0 0   XYZ
    dof rx ry rz
    limits (-20.0 45.0)
           (-30.0 30.0)
           (-30.0 30.0)
  end
  begin
     id 14 
     name lowerneck
     direction -0.0401726 0.999191 -0.00173647   
     length 2.10594   
     axis 0 -0 0   XYZ
    dof rx ry rz
    limits (-20.0 45.0)
           (-30.0 30.0)
           (-30.0 30.0)
  end
  begin
     id 15 
     name upperneck
     direction 0.0119835 0.998501 0.0534085   
     length 2.07325   
     axis 0 -0 0   XYZ
    dof rx ry rz
    limits (-20.0 45.0)
           (-30.0 30.0)
           (-30.0 30.0)
  end
  begin
     id 16
     name head
     direction 0.00628309 0.999826 0.0175921  
     length 2.15096  
     axis 0 -0 0   XYZ
    dof rx ry rz
    limits (-20.0 45.0)
           (-30.0 30.0)
           (-30.0 30.0)
  end
  begin
     id 17 
     name lclavicle
     direction 0.895501 0.429681 -0.115981  
     length 4.18092  
     axis 0 -0 0   XYZ
    dof ry rz
    limits (-20.0 10.0)
           (0.0 20.0)
  end
  begin
     id 18 
     name lhumerus
     direction 1 -4.48961e-011 -3.38433e-028   
     length 5.77237   
     axis 180 -30 -90   XYZ
    dof rx ry rz
    limits (-60.0 90.0)
           (-90.0 90.0)
           (-90.0 90.0)
  end
  begin
     id 19
     name lradius
     direction 1 -4.4901e-011 1.11983e-026   
     length 2.91878   
     axis 180 -30 -90   XYZ
    dof rx
    limits (-10.0 170.0)
  end
  begin
     id 20
     name lwrist
     direction 1 -4.48934e-011 1.88176e-026   
     length 1.45939   
     axis -1.23311e-014 90 90   XYZ
    dof ry
    limits (-180.0 0.0)
 end
  begin
     id 21 
     name lhand
     direction 1 -4.4895e-011 3.76352e-026   
     length 1.06566   
     axis -2.40147e-014 90 90   XYZ
    dof rx rz
    limits (-90.0 90.0)
           (-45.0 45.0)
  end
  begin
     id 22 
     name lfingers
     direction 1 -4.49005e-011 7.52705e-026   
     length 0.859162   
     axis -4.80295e-014 90 90   XYZ
    dof rx
    limits (0.0 90.0)
  end
  begin
     id 23
     name lthumb
     direction 0.707107 -6.34885e-011 0.707107   
     length 1.23359   
     axis -90 45 -9.86935e-015   XYZ
    dof rx rz
    limits (-45.0 45.0)
           (-45.0 45.0)
  end
  begin
     id 24 
     name rclavicle
     direction -0.91006 0.40451 -0.0903492   
     length 4.23293  
     axis 0 -0 0   XYZ 
    dof ry rz
    limits (-10.0 20.0)
           (-20.0 0.0)
  end
  begin
     id 25 
     name rhumerus
     direction -1 -4.4897e-011 1.7415e-027  
     length 5.49854   
     axis 180 30 90   XYZ
    dof rx ry rz
    limits (-90.0 60.0)
           (-90.0 90.0)
           (-90.0 90.0)
  end
  begin
     id 26 
     name rradius
     direction -1 -4.48963e-011 1.21259e-026   
     length 3.1186   
     axis 180 30 90   XYZ
    dof rx
    limits (-10.0 170.0)
  end
  begin
     id 27 
     name rwrist
     direction -1 -4.48967e-011 1.88176e-026   
     length 1.5593   
     axis -1.23311e-014 -90 -90   XYZ
    dof ry
    limits (-180.0 0.0)
  end
  begin
     id 28
     name rhand
     direction -1 -4.4895e-011 3.76352e-026   
     length 0.71207   
     axis -2.40147e-014 -90 -90   XYZ
    dof rx rz
    limits (-90.0 90.0)
           (-45.0 45.0)
  end
  begin
     id 29
     name rfingers
     direction -1 -4.49005e-011 7.52705e-026   
     length 0.574089   
     axis -4.80295e-014 -90 -90   XYZ
    dof rx
    limits (0.0 90.0)
  end
  begin
     id 30
     name rthumb
     direction -0.707107 -6.34982e-011 0.707107   
     length 0.824281   
     axis -90 -45 9.86935e-015   XYZ
    dof rx rz
    limits (-45.0 45.0)
           (-45.0 45.0)
  end
:hierarchy
  begin
    root lhipjoint rhipjoint lowerback
    lhipjoint lfemur
    lfemur ltibia
    ltibia lfoot
    lfoot ltoes
    rhipjoint rfemur
    rfemur rtibia
    rtibia rfoot
    rfoot rtoes
    lowerback upperback
    upperback thorax
    thorax lowerneck lclavicle rclavicle
    lowerneck upperneck
    upperneck head
    lclavicle lhumerus
    lhumerus lradius
    lradius lwrist
    lwrist lhand lthumb
    lhand lfingers
    rclavicle rhumerus
    rhumerus rradius
    rradius rwrist
    rwrist rhand rthumb
    rhand rfingers
  end

#!OML:ASF C:\ViconDB\ViconDB\414\Spring2016\042216\male.ASF
:FULLY-SPECIFIED
:DEGREES
570
root 12.3915 20.4894 18.9387 -169.239 30.7722 -170.666
lowerback 11.3368 -4.55287 4.03476
upperback 1.45889 -5.54332 -1.61631
thorax -5.35684 -2.78947 -3.06748
lowerneck 0.183661 -4.89736 -14.3353
upperneck -12.797 -5.20508 15.0239
head -2.91666 -2.38334 7.13879
rclavicle -2.14687e-014 3.81667e-014
rhumerus -23.5467 -4.76318 -79.71
rradius 92.6937
rwrist -16.1992
rhand 1.64938 -23.8182
rfingers 7.12502
rthumb 27.1692 -51.8823
lclavicle -2.14687e-014 3.81667e-014
lhumerus -31.196 24.6605 52.9819
lradius 69.1228
lwrist 13.0956
lhand -20.5863 18.1494
lfingers 7.12502
lthumb 5.7738 48.0507
rfemur -26.5231 -4.15006 29.1811
rtibia 60.468
rfoot 5.76326 -15.3923
rtoes -5.95128
lfemur -34.7736 4.33529 -9.88506
ltibia 76.2987
lfoot -11.9727 11.9878
ltoes -14.2327
571
root 12.4511 20.1593 18.916 -169.51 31.4976 -170.392
lowerback 10.0976 -4.40127 3.9075
upperback 1.37482 -5.41877 -1.52117
thorax -4.72385 -2.72796 -3.00193
lowerneck -0.0767348 -4.69659 -14.3055
upperneck -11.8912 -5.04524 14.6381
head -2.65208 -2.3086 6.97543
rclavicle -7.4743e-014 -3.18055e-015
rhumerus -25.1645 -3.32382 -81.672
rradius 88.6936
rwrist -17.3949
rhand 1.65179 -24.5349
rfingers 7.12502
rthumb 27.1715 -52.5986
lclavicle -7.4743e-014 -3.18055e-015
lhumerus -32.7587 24.6321 53.6741
lradius 64.6005
lwrist 11.0569
lhand -17.7979 15.104
lfingers 7.12502
lthumb 8.46534 44.9143
rfemur -22.8108 -3.30051 28.9529
rtibia 53.9664
rfoot 6.9741 -14.7191
rtoes -5.69655
lfemur -31.7005 3.71149 -9.6934
ltibia 71.0029
lfoot -11.9083 9.08249
ltoes -14.9614
572
root 12.5228 19.7641 18.8838 -169.747 32.1659 -170.124
lowerback 8.40463 -4.2978 3.78937
upperback 1.34801 -5.3714 -1.40904
thorax -3.78403 -2.69978 -2.94611
lowerneck -0.423485 -4.492 -14.2703
upperneck -10.7417 -4.89736 14.1731
head -2.30355 -2.24129 6.77989
rclavicle 1.24837e-013 -6.20208e-014
rhumerus -26.6339 -2.02026 -83.623
rradius 84.4593
rwrist -18.0153
rhand 2.0301 -24.9343
rfingers 7.12502
rthumb 27.5334 -52.9409
lclavicle 1.24837e-013 -6.20208e-014
lhumerus -34.4466 24.4004 54.3182
lradius 60.6552
lwrist 8.22735
lhand -15.1504 11.8294
lfingers 7.12502
lthumb 11.0197 41.5202
rfemur -19.2674 -2.5378 28.783
rtibia 47.8414
rfoot 7.75311 -13.8918
rtoes -6.36557
lfemur -28.8782 3.20229 -9.53337
ltibia 66.3644
lfoot -12.0193 6.1489
ltoes -16.3193
573
root 12.6043 19.3906 18.8394 -169.409 33.1703 -169.659
lowerback 5.94448 -4.03693 3.9011
upperback 1.23844 -5.12915 -1.2359
thorax -2.50081 -2.57486 -3.02772
lowerneck -0.855813 -4.26079 -14.2325
upperneck -9.36074 -4.72272 13.612
head -1.88063 -2.16157 6.55076
rclavicle 6.61953e-014 -1.27222e-014
rhumerus -28.0459 -0.731047 -85.3595
rradius 80.2523
rwrist -18.36
rhand 2.89113 -25.5055
rfingers 7.12502
rthumb 28.3565 -53.3781
lclavicle 6.61953e-014 -1.27222e-014
lhumerus -35.9358 24.1504 55.2097
lradius 57.0512
lwrist 5.34663
lhand -13.2405 9.82802
lfingers 7.12502
lthumb 12.8614 39.4118
rfemur -16.2616 -1.19637 28.695
rtibia 41.9492
rfoot 8.80805 -12.8069
rtoes -6.97306
lfemur -26.4263 3.04435 -9.31518
ltibia 62.195
lfoot -11.8629 2.9271
ltoes -17.2171
574
root 12.6751 18.9901 18.7973 -169.262 34.3572 -169.292
lowerback 4.06511 -3.82083 3.91515
upperback 0.937575 -4.92809 -1.06149
thorax -1.73142 -2.47534 -2.99211
lowerneck -1.082 -4.00041 -14.1786
upperneck -7.95816 -4.52122 13.1349
head -1.48506 -2.08138 6.35665
rclavicle -5.92378e-014 -3.02153e-014
rhumerus -29.5911 1.09758 -86.8861
rradius 75.9854
rwrist -18.1769
rhand 4.17814 -25.994
rfingers 7.12502
rthumb 29.5858 -53.6555
lclavicle -5.92378e-014 -3.02153e-014
lhumerus -37.7427 23.6398 56.2227
lradius 54.0225
lwrist 3.41749
lhand -13.0578 9.82651
lfingers 7.12502
lthumb 13.0375 39.3991
rfemur -13.3542 0.400354 28.4031
rtibia 36.6392
rfoot 9.97507 -11.211
rtoes -7.55249
lfemur -23.9687 2.812 -9.36704
ltibia 58.743
lfoot -11.1181 -0.0965729
ltoes -17.2291
575
root 12.7335 18.584 18.7524 -169.013 34.814 -168.735
lowerback 2.09221 -3.86276 4.53884
upperback 0.718325 -5.05702 -0.777461
thorax -0.893254 -2.53394 -3.16989
lowerneck -1.19092 -3.68291 -14.435
upperneck -6.83778 -4.20678 12.9087
head -1.18932 -1.93968 6.30861
rclavicle 1.13705e-013 -4.13472e-014
rhumerus -30.8542 2.98758 -87.9787
rradius 71.5458
rwrist -15.2851
rhand 7.329 -25.3928
rfingers 7.12502
rthumb 32.5888 -52.4789
lclavicle 1.13705e-013 -4.13472e-014
lhumerus -39.2478 23.208 57.7215
lradius 51.5398
lwrist 2.27533
lhand -14.026 12.6466
lfingers 7.12502
lthumb 12.104 42.2765
rfemur -10.791 1.92568 28.3768
rtibia 32.1238
rfoot 10.4411 -9.78619
rtoes -7.7531
lfemur -21.8998 1.88634 -9.28629
ltibia 55.853
lfoot -9.35315 -2.62197
ltoes -15.9523
576
root 12.7807 18.1799 18.7067 -168.595 35.2916 -168.364
lowerback -0.050364 -3.84488 5.32083
upperback 0.571111 -5.14257 -0.754196
thorax 0.0801239 -2.55765 -3.72833
lowerneck -1.42137 -3.40129 -13.9604
upperneck -6.12896 -3.87074 12.6021
head -1.01093 -1.78504 6.12069
rclavicle 7.50412e-014 -1.90833e-014
rhumerus -32.0036 4.95549 -89.4926
rradius 67.6994
rwrist -13.6211
rhand 9.71881 -25.5337
rfingers 7.12502
rthumb 34.8596 -52.1224
lclavicle 7.50412e-014 -1.90833e-014
lhumerus -40.1587 23.0928 59.1707
lradius 49.4183
lwrist 1.03533
lhand -15.451 15.7655
lfingers 7.12502
lthumb 10.7298 45.4715
rfemur -9.34492 3.69085 28.2135
rtibia 29.2734
rfoot 7.72091 -8.21097
rtoes -23.2287
lfemur -20.3756 1.02591 -9.5438
ltibia 53.556
lfoot -6.87774 -3.86411
ltoes -14.588
577
root 12.8089 17.7796 18.6765 -168.316 35.9312 -168.38
lowerback -1.86112 -3.7378 5.74313
upperback 0.346762 -5.10861 -0.687802
thorax 0.835617 -2.52125 -4.0212
lowerneck -1.17929 -3.25859 -13.8452
upperneck -6.14217 -3.71575 12.5128
head -1.08045 -1.71872 6.08011
rclavicle -5.17834e-014 2.38542e-014
rhumerus -33.0691 6.95208 -90.5597
rradius 63.9984
rwrist -10.9254
rhand 11.9554 -24.6609
rfingers 7.12502
rthumb 36.9785 -50.7309
lclavicle -5.17834e-014 2.38542e-014
lhumerus -40.827 23.3516 61.0579
lradius 47.8036
lwrist -0.344453
lhand -16.5936 18.7274
lfingers 7.12502
lthumb 9.62744 48.4874
rfemur -8.34088 5.69276 27.7653
rtibia 28.3412
rfoot 0.532376 -6.358
rtoes -32.4642
lfemur -19.19 0.377259 -10.3284
ltibia 52.0729
lfoot -4.72921 -2.53386
ltoes -15.4185
578
root 12.8304 17.4042 18.6591 -168.339 36.9373 -168.638
lowerback -3.2319 -3.51778 5.83073
upperback 0.198822 -4.89754 -0.673599
thorax 1.46792 -2.39653 -4.14841
lowerneck -0.48281 -3.09014 -13.8727
upperneck -6.95052 -3.49399 12.828
head -1.4503 -1.62319 6.21318
rclavicle 9.26834e-014 1.59028e-014
rhumerus -34.3023 8.37737 -91.6355
rradius 60.3433
rwrist -4.73661
rhand 14.2082 -21.6941
rfingers 7.12502
rthumb 39.1058 -47.1838
lclavicle 9.26834e-014 1.59028e-014
lhumerus -41.2843 23.8895 63.0663
lradius 46.6338
lwrist -1.57045
lhand -16.6787 20.1909
lfingers 7.12502
lthumb 9.54538 49.9547
rfemur -6.65609 9.4751 27.2731
rtibia 29.0437
rfoot -6.31597 -5.83525
rtoes -28.1712
lfemur -17.8086 0.32179 -11.4223
ltibia 51.2937
lfoot -13.8043 2.86196
ltoes -34.8906
579
root 12.8499 17.1436 18.6551 -167.873 37.6694 -168.268
lowerback -4.05117 -3.34908 6.19229
upperback 0.0317494 -4.7357 -0.412349
thorax 1.7655 -2.30369 -4.12694
lowerneck 0.252559 -2.92804 -13.6378
upperneck -8.3055 -3.23426 12.8859
head -2.00319 -1.5015 6.2319
rclavicle -3.47873e-014 6.36111e-015
rhumerus -35.4521 9.61578 -92.5576
rradius 57.0645
rwrist 0.146861
rhand 14.2081 -19.5278
rfingers 7.12502
rthumb 39.1057 -45.0175
lclavicle -3.47873e-014 6.36111e-015
lhumerus -41.4153 24.7174 65.2244
lradius 45.5303
lwrist -3.14614
lhand -15.9305 19.0947
lfingers 7.12502
lthumb 10.2672 48.8241
rfemur -6.47758 13.0622 27.357
rtibia 31.1103
rfoot -12.9616 -4.90905
rtoes -21.9714
lfemur -16.0509 0.0572537 -11.5955
ltibia 51.4199
lfoot -23.416 3.40937
ltoes -36.3251
580
root 12.8709 16.9553 18.6294 -168.25 38.2876 -168.294
lowerback -3.90503 -3.21944 6.34208
upperback 0.0304233 -4.56019 -0.349775
thorax 1.69608 -2.21708 -4.12922
lowerneck 1.43382 -2.80889 -13.3835
upperneck -10.2392 -3.00751 13.1083
head -2.79287 -1.40719 6.32274
rclavicle 3.88624e-014 1.11319e-014
rhumerus -36.3985 9.64076 -93.0831
rradius 53.3731
rwrist 7.24535
rhand 14.51 -16.0576
rfingers 7.12502
rthumb 39.3902 -41.4648
lclavicle 3.88624e-014 1.11319e-014
lhumerus -40.9856 25.4864 67.4354
lradius 44.0644
lwrist -4.67708
lhand -14.8154 16.6907
lfingers 7.12502
lthumb 11.3428 46.3639
rfemur -7.04705 12.5337 27.3334
rtibia 33.7676
rfoot -18.7915 -4.50802
rtoes -21.8065
lfemur -14.5425 -0.050955 -12.2158
ltibia 52.146
lfoot -27.9415 6.21388
ltoes -31.3396
581
root 12.8758 16.6864 18.6447 -168.559 38.9223 -168.212
lowerback -3.35055 -3.11297 6.22443
upperback 0.221506 -4.38592 -0.0937757
thorax 1.63226 -2.12948 -3.76496
lowerneck 1.62457 -2.83703 -13.3512
upperneck -11.6605 -2.89175 13.2867
head -3.25189 -1.32966 6.41166
rclavicle 1.87106e-014 -9.54166e-015
rhumerus -36.4313 9.11641 -93.0163
rradius 48.9245
rwrist 13.7938
rhand 14.2943 -13.5309
rfingers 7.12502
rthumb 39.187 -38.9971
lclavicle 1.87106e-014 -9.54166e-015
lhumerus -39.5754 26.8192 70.0371
lradius 41.8142
lwrist -6.53904
lhand -13.8701 13.5552
lfingers 7.12502
lthumb 12.2543 43.1762
rfemur -7.96977 10.1166 27.4092
rtibia 36.6721
rfoot -23.5914 -4.97357
rtoes -22.9714
lfemur -13.8496 0.724158 -12.7778
ltibia 53.2212
lfoot -33.7686 11.689
ltoes -31.2595
582
root 12.8581 16.3576 18.6909 -169.069 39.4053 -167.807
lowerback -2.09443 -3.21714 5.98806
upperback 0.337877 -4.4345 0.265518
thorax 1.08902 -2.17007 -3.1875
lowerneck 1.83774 -2.69286 -13.012
upperneck -12.3646 -2.6288 13.2173
head -3.53783 -1.20195 6.34994
rclavicle 1.39472e-013 -2.54444e-014
rhumerus -36.4839 8.2752 -92.9844
rradius 43.7048
rwrist 19.3359
rhand 12.7326 -13.176
rfingers 7.12502
rthumb 37.7133 -39.0527
lclavicle 1.39472e-013 -2.54444e-014
lhumerus -39.1236 27.2895 72.6054
lradius 40.9021
lwrist -7.80699
lhand -13.7561 11.5225
lfingers 7.12502
lthumb 12.3643 41.1369
rfemur -8.10871 8.5306 27.6641
rtibia 39.7678
rfoot -29.7417 -4.3156
rtoes -17.4024
lfemur -12.776 1.58373 -12.7842
ltibia 54.1825
lfoot -39.2066 15.3
ltoes -26.0116
583
root 12.8341 16.0052 18.7341 -170.694 39.8288 -168.423
lowerback -0.675742 -3.31295 5.2289
upperback 0.682792 -4.46754 0.272476
thorax 0.703854 -2.19657 -2.68153
lowerneck 1.58083 -2.66049 -12.8617
upperneck -12.3398 -2.54131 13.2038
head -3.50086 -1.15395 6.31274
rclavicle 9.93923e-017 -7.15625e-015
rhumerus -36.1396 6.46153 -92.2865
rradius 37.6203
rwrist 24.3794
rhand 10.451 -13.9375
rfingers 7.12502
rthumb 35.554 -40.3624
lclavicle 9.93923e-017 -7.15625e-015
lhumerus -38.2918 27.2985 75.1655
lradius 39.4734
lwrist -8.54664
lhand -14.2389 10.1979
lfingers 7.12502
lthumb 11.8988 39.8398
rfemur -7.71264 6.40561 27.1191
rtibia 43.1667
rfoot -35.6277 -4.51163
rtoes -13.9206
lfemur -10.9366 1.86108 -13.7271
ltibia 54.9906
lfoot -45.5478 18.18
ltoes -22.5287
